<svg width="142" height="41" viewBox="0 0 142 41" fill="none" xmlns="http://www.w3.org/2000/svg">
<path d="M4.38065 31V29.4903C5.90323 29.4645 7.03871 29.3613 7.7871 29.1806C8.56129 29 9.07742 28.6516 9.33548 28.1355C9.59355 27.6194 9.72258 26.8581 9.72258 25.8516V5.21936H8.13548C6.97419 5.21936 5.99355 5.46452 5.19355 5.95484C4.41935 6.44516 3.76129 7.25806 3.21935 8.39355C2.67742 9.52903 2.1871 11.0516 1.74839 12.9613H0.2C0.458064 11.3613 0.63871 9.7871 0.741935 8.23871C0.845161 6.69032 0.909677 5.14194 0.935484 3.59355C2.01935 3.61936 3.21935 3.64516 4.53548 3.67097C5.85161 3.69677 7.18064 3.70968 8.52258 3.70968C9.86452 3.70968 11.1161 3.70968 12.2774 3.70968C13.3613 3.70968 14.5613 3.70968 15.8774 3.70968C17.2194 3.70968 18.5613 3.69677 19.9032 3.67097C21.2452 3.64516 22.471 3.61936 23.5806 3.59355C23.6065 5.14194 23.671 6.69032 23.7742 8.23871C23.9032 9.7871 24.0839 11.3613 24.3161 12.9613H22.729C22.4194 11.5161 22.071 10.3032 21.6839 9.32258C21.2968 8.34194 20.8581 7.54194 20.3677 6.92258C19.8774 6.30323 19.2968 5.86452 18.6258 5.60645C17.9806 5.34839 17.2323 5.21936 16.3806 5.21936H14.7935V25.8516C14.7935 26.8581 14.9226 27.6194 15.1806 28.1355C15.4387 28.6516 15.9419 29 16.6903 29.1806C17.4645 29.3613 18.6129 29.4645 20.1355 29.4903V31C19.2839 30.9484 18.1613 30.9226 16.7677 30.9226C15.3742 30.8968 13.8903 30.8839 12.3161 30.8839C10.6645 30.8839 9.12903 30.8968 7.70968 30.9226C6.31613 30.9226 5.20645 30.9484 4.38065 31ZM31.3005 31.5419C29.4424 31.5419 27.7779 31.1677 26.307 30.4194C24.8618 29.6452 23.7134 28.4839 22.8618 26.9355C22.036 25.3871 21.6231 23.4129 21.6231 21.0129C21.6231 18.6129 22.036 16.6387 22.8618 15.0903C23.7134 13.5161 24.8618 12.3548 26.307 11.6065C27.7779 10.8581 29.4553 10.4839 31.3392 10.4839C33.2231 10.4839 34.8876 10.8581 36.3328 11.6065C37.7779 12.3548 38.9134 13.5161 39.7392 15.0903C40.5908 16.6387 41.0166 18.6129 41.0166 21.0129C41.0166 23.4129 40.5908 25.3871 39.7392 26.9355C38.9134 28.4839 37.765 29.6452 36.2941 30.4194C34.8489 31.1677 33.1844 31.5419 31.3005 31.5419ZM31.3392 30.0323C32.707 30.0323 33.8295 29.3226 34.707 27.9032C35.5844 26.4581 36.0231 24.1613 36.0231 21.0129C36.0231 17.8387 35.5715 15.5419 34.6682 14.1226C33.7908 12.6774 32.6811 11.9548 31.3392 11.9548C29.9457 11.9548 28.7973 12.6774 27.8941 14.1226C27.0166 15.5419 26.5779 17.8387 26.5779 21.0129C26.5779 24.1613 27.0166 26.4581 27.8941 27.9032C28.7973 29.3226 29.9457 30.0323 31.3392 30.0323ZM48.1168 40.2516C45.4588 40.2516 43.3684 39.8 41.8459 38.8968C40.3491 37.9935 39.6007 36.8065 39.6007 35.3355C39.6007 34.1484 40.0523 33.0903 40.9555 32.1613C41.8846 31.2581 43.2265 30.4968 44.9814 29.8774L46.0265 30.4968C45.2781 30.8839 44.6846 31.4387 44.2459 32.1613C43.833 32.9097 43.6265 33.7226 43.6265 34.6C43.6265 35.9419 44.091 36.9742 45.0201 37.6968C45.9491 38.4194 47.2523 38.7806 48.9297 38.7806C50.2459 38.7806 51.4072 38.5613 52.4136 38.1226C53.4459 37.6839 54.2459 37.0774 54.8136 36.3032C55.4072 35.5548 55.7039 34.6903 55.7039 33.7097C55.7039 32.8065 55.4072 32.1226 54.8136 31.6581C54.2201 31.1935 53.3426 30.9613 52.1814 30.9613H48.1168C46.491 30.9613 45.2007 30.6516 44.2459 30.0323C43.291 29.3871 42.8136 28.5355 42.8136 27.4774C42.8136 26.6258 43.1104 25.8387 43.7039 25.1161C44.2975 24.3935 45.1878 23.7097 46.3749 23.0645L47.691 23.2194C47.2007 23.5548 46.8394 23.8903 46.6072 24.2258C46.3749 24.5613 46.2588 24.9226 46.2588 25.3097C46.2588 25.8258 46.4781 26.2129 46.9168 26.471C47.3555 26.729 47.9749 26.8581 48.7749 26.8581H53.0717C55.2394 26.8581 56.891 27.3097 58.0265 28.2129C59.1878 29.0903 59.7684 30.3806 59.7684 32.0839C59.7684 33.6839 59.2652 35.0903 58.2588 36.3032C57.2781 37.5419 55.9104 38.5097 54.1555 39.2065C52.4265 39.9032 50.4136 40.2516 48.1168 40.2516ZM48.7749 23.4516C46.3233 23.4516 44.4007 22.8839 43.0072 21.7484C41.6136 20.5871 40.9168 18.9871 40.9168 16.9484C40.9168 14.9355 41.6136 13.3613 43.0072 12.2258C44.4007 11.0645 46.3104 10.4839 48.7362 10.4839C51.1878 10.4839 53.0975 11.0516 54.4652 12.1871C55.833 13.3226 56.5168 14.9097 56.5168 16.9484C56.5168 18.9871 55.833 20.5871 54.4652 21.7484C53.0975 22.8839 51.2007 23.4516 48.7749 23.4516ZM48.7749 21.9806C49.8846 21.9806 50.7104 21.5677 51.2523 20.7419C51.8201 19.9161 52.1039 18.6516 52.1039 16.9484C52.1039 15.2452 51.8201 13.9806 51.2523 13.1548C50.7104 12.329 49.8846 11.9161 48.7749 11.9161C47.691 11.9161 46.8652 12.329 46.2975 13.1548C45.7555 13.9806 45.4846 15.2452 45.4846 16.9484C45.4846 18.6516 45.7555 19.9161 46.2975 20.7419C46.8394 21.5677 47.6652 21.9806 48.7749 21.9806ZM60.0007 15.7097C59.4846 15.7097 59.0975 15.5548 58.8394 15.2452C58.6072 14.9097 58.4265 14.5226 58.2975 14.0839C58.1684 13.6452 58.0265 13.2581 57.8717 12.9226C57.7426 12.5871 57.5362 12.4194 57.2523 12.4194C57.0717 12.4194 56.8394 12.5097 56.5555 12.6903C56.2717 12.8452 55.9749 13.0774 55.6652 13.3871C55.3555 13.6968 55.0846 14.071 54.8523 14.5097L54.1555 13.3871C54.6975 12.5355 55.4201 11.8387 56.3233 11.2968C57.2523 10.7548 58.1814 10.4839 59.1104 10.4839C59.9362 10.4839 60.5943 10.729 61.0846 11.2194C61.5749 11.6839 61.8201 12.3548 61.8201 13.2323C61.8201 13.9806 61.6523 14.5871 61.3168 15.0516C61.0072 15.4903 60.5684 15.7097 60.0007 15.7097ZM60.392 31V29.4903L71.8888 12.6129H68.5598C67.2178 12.6129 66.1082 12.7935 65.2307 13.1548C64.3791 13.4903 63.7211 14.0968 63.2566 14.9742C62.792 15.8516 62.4824 17.1032 62.3275 18.729H60.8178C60.8178 16.8452 60.792 15.2968 60.7404 14.0839C60.7146 12.8452 60.6759 11.8258 60.6243 11.0258C61.8888 11.0516 63.1791 11.0903 64.4953 11.1419C65.8372 11.1677 67.192 11.1806 68.5598 11.1806C69.9791 11.1806 71.3985 11.1677 72.8178 11.1419C74.263 11.0903 75.6566 11.0516 76.9985 11.0258V12.5355L65.5017 29.4516H68.9082C70.1727 29.4516 71.2436 29.271 72.1211 28.9097C72.9985 28.5484 73.6953 27.929 74.2114 27.0516C74.7275 26.1484 75.0501 24.8968 75.1791 23.2968H76.6888C76.6888 25.1548 76.7017 26.7032 76.7275 27.9419C76.7533 29.1806 76.8049 30.2 76.8824 31C75.6436 30.9484 74.3404 30.9097 72.9727 30.8839C71.6307 30.8581 70.2888 30.8452 68.9469 30.8452C67.5275 30.8452 66.0824 30.8581 64.6114 30.8839C63.1404 30.9097 61.734 30.9484 60.392 31ZM89.3194 31V29.4903C90.3258 29.4645 91.0226 29.2581 91.4097 28.871C91.7968 28.4581 91.9903 27.7355 91.9903 26.7032V17.2968C91.9903 15.8 91.6936 14.6774 91.1 13.929C90.5065 13.1806 89.6161 12.8065 88.429 12.8065C87.5 12.8065 86.6355 13.0645 85.8355 13.5806C85.0355 14.0968 84.3387 14.8581 83.7452 15.8645L83.7839 14.2C84.429 13.0129 85.3194 12.0968 86.4548 11.4516C87.6161 10.8065 88.9194 10.4839 90.3645 10.4839C92.4032 10.4839 93.9645 11.1032 95.0484 12.3419C96.1323 13.5806 96.6742 15.3613 96.6742 17.6839V26.7032C96.6742 27.7355 96.9581 28.4581 97.5258 28.871C98.1194 29.2581 99.1516 29.4645 100.623 29.4903V31C100.235 30.9742 99.6936 30.9613 98.9968 30.9613C98.3258 30.9355 97.5903 30.9097 96.7903 30.8839C95.9903 30.8581 95.2032 30.8452 94.429 30.8452C93.4226 30.8452 92.429 30.871 91.4484 30.9226C90.4936 30.9484 89.7839 30.9742 89.3194 31ZM75.3065 31V29.4903C76.8032 29.4645 77.8355 29.2581 78.4032 28.871C78.971 28.4581 79.2548 27.7355 79.2548 26.7032V6.03226C79.2548 4.81936 78.9581 3.96774 78.3645 3.47742C77.7968 2.96129 76.7774 2.67742 75.3065 2.62581V1.11613C75.8742 1.14194 76.429 1.16774 76.971 1.19355C77.5129 1.21935 78.0677 1.23226 78.6355 1.23226C79.6161 1.23226 80.5452 1.19355 81.4226 1.11613C82.3258 1.0129 83.1774 0.870968 83.9774 0.690323V26.7032C83.9774 27.7355 84.1581 28.4581 84.5194 28.871C84.9065 29.2581 85.6161 29.4645 86.6484 29.4903V31C86.1065 30.9742 85.371 30.9484 84.4419 30.9226C83.5387 30.871 82.5968 30.8452 81.6161 30.8452C80.5065 30.8452 79.3452 30.871 78.1323 30.9226C76.9452 30.9484 76.0032 30.9742 75.3065 31ZM104.301 31.5419C102.572 31.5419 101.204 31.0903 100.198 30.1871C99.1912 29.2839 98.688 28.071 98.688 26.5484C98.688 25.3613 98.959 24.3935 99.5009 23.6452C100.069 22.8968 100.804 22.3032 101.707 21.8645C102.611 21.4 103.553 21.0258 104.533 20.7419C105.54 20.4323 106.482 20.1484 107.359 19.8903C108.262 19.6323 108.998 19.3226 109.565 18.9613C110.133 18.6 110.417 18.1097 110.417 17.4903V15.671C110.417 14.4839 110.082 13.5806 109.411 12.9613C108.765 12.3419 107.798 12.0323 106.507 12.0323C105.553 12.0323 104.765 12.1742 104.146 12.4581C103.553 12.7161 103.256 13.0516 103.256 13.4645C103.256 13.7226 103.346 14.0065 103.527 14.3161C103.707 14.6258 103.888 14.9484 104.069 15.2839C104.275 15.6194 104.378 15.9806 104.378 16.3677C104.378 16.9097 104.159 17.3484 103.72 17.6839C103.307 18.0194 102.765 18.1871 102.094 18.1871C101.294 18.1871 100.649 17.9548 100.159 17.4903C99.6945 17 99.4622 16.3419 99.4622 15.5161C99.4622 14.5355 99.8235 13.671 100.546 12.9226C101.294 12.1484 102.301 11.5548 103.565 11.1419C104.856 10.7032 106.314 10.4839 107.94 10.4839C109.643 10.4839 111.023 10.729 112.082 11.2194C113.14 11.6839 113.914 12.4452 114.404 13.5032C114.894 14.5613 115.14 15.9548 115.14 17.6839V27.7484C115.14 28.3677 115.23 28.8194 115.411 29.1032C115.617 29.3613 115.927 29.4903 116.34 29.4903C116.727 29.4903 117.114 29.4 117.501 29.2194C117.888 29.0387 118.275 28.8065 118.662 28.5226L119.32 29.7613C118.649 30.329 117.914 30.7677 117.114 31.0774C116.314 31.3871 115.398 31.5419 114.365 31.5419C111.785 31.5419 110.482 30.4452 110.456 28.2516C109.707 29.3613 108.817 30.1871 107.785 30.729C106.753 31.271 105.591 31.5419 104.301 31.5419ZM106.391 28.871C107.165 28.871 107.901 28.6903 108.598 28.329C109.294 27.9419 109.901 27.3871 110.417 26.6645V19.5806C110.185 19.9935 109.798 20.3419 109.256 20.6258C108.714 20.9097 108.107 21.1935 107.436 21.4774C106.791 21.7355 106.159 22.0452 105.54 22.4065C104.92 22.7677 104.404 23.2194 103.991 23.7613C103.604 24.3032 103.411 25 103.411 25.8516C103.411 26.8065 103.669 27.5548 104.185 28.0968C104.727 28.6129 105.462 28.871 106.391 28.871ZM130.155 31V29.4903C131.187 29.4645 131.884 29.2581 132.245 28.871C132.632 28.4581 132.826 27.7355 132.826 26.7032V17.2968C132.826 15.8 132.529 14.6774 131.935 13.929C131.342 13.1806 130.464 12.8065 129.303 12.8065C128.374 12.8065 127.51 13.0645 126.71 13.5806C125.91 14.0968 125.213 14.8581 124.619 15.8645V14.1613C125.264 13 126.155 12.0968 127.29 11.4516C128.452 10.8065 129.755 10.4839 131.2 10.4839C133.239 10.4839 134.8 11.1032 135.884 12.3419C136.993 13.5806 137.548 15.3613 137.548 17.6839V26.7032C137.548 27.7355 137.832 28.4581 138.4 28.871C138.968 29.2581 140 29.4645 141.497 29.4903V31C141.11 30.9742 140.568 30.9613 139.871 30.9613C139.174 30.9355 138.426 30.9097 137.626 30.8839C136.826 30.8581 136.039 30.8452 135.264 30.8452C134.284 30.8452 133.303 30.871 132.322 30.9226C131.368 30.9484 130.645 30.9742 130.155 31ZM116.181 31V29.4903C117.652 29.4645 118.671 29.2581 119.239 28.871C119.806 28.4581 120.09 27.7355 120.09 26.7032V15.9419C120.09 14.7032 119.793 13.8387 119.2 13.3484C118.632 12.8323 117.626 12.5613 116.181 12.5355V11.0258C116.722 11.0516 117.264 11.0774 117.806 11.1032C118.348 11.129 118.903 11.1419 119.471 11.1419C120.477 11.1419 121.419 11.1032 122.297 11.0258C123.2 10.9226 124.039 10.7806 124.813 10.6V26.7032C124.813 27.7355 125.006 28.4581 125.393 28.871C125.781 29.2581 126.477 29.4645 127.484 29.4903V31C126.916 30.9742 126.181 30.9484 125.277 30.9226C124.374 30.871 123.445 30.8452 122.49 30.8452C121.381 30.8452 120.232 30.871 119.045 30.9226C117.884 30.9484 116.929 30.9742 116.181 31Z" fill="#403931"/>
</svg>
